<svg width="23" height="22" viewBox="0 0 23 22" fill="none" xmlns="http://www.w3.org/2000/svg">
<path fill-rule="evenodd" clip-rule="evenodd" d="M17.4764 6.842C16.8164 6.842 16.2779 6.30705 16.2779 5.65052C16.2779 4.99168 16.8164 4.45673 17.4764 4.45673C18.1364 4.45673 18.6736 4.99168 18.6736 5.65052C18.6736 6.30705 18.1364 6.842 17.4764 6.842ZM11.6637 16.3032C8.94962 16.3032 6.74036 14.0962 6.74036 11.3821C6.74036 8.66801 8.94962 6.46105 11.6637 6.46105C14.379 6.46105 16.5871 8.66801 16.5871 11.3821C16.5871 14.0962 14.379 16.3032 11.6637 16.3032ZM16.7272 0H6.96036C3.30257 0 0.84436 2.57284 0.84436 6.40315V15.5968C0.84436 19.426 3.30257 22 6.96036 22H16.726C20.385 22 22.8443 19.426 22.8443 15.5968V6.40315C22.8443 2.57284 20.3861 0 16.7272 0Z" fill="#163A34"/>
</svg>
