<svg width="31" height="35" viewBox="0 0 31 35" fill="none" xmlns="http://www.w3.org/2000/svg">
<path fill-rule="evenodd" clip-rule="evenodd" d="M8.34355 2.21955C8.28856 3.73801 8.5753 6.42644 12.597 9.60477C15.9864 12.2837 18.9818 15.2538 19.8785 19.0303C20.6747 22.3821 20.1697 32.0742 13.9864 28.5777C10.9635 26.869 6.82901 23.6323 7.08433 18.816C7.08433 18.816 7.21283 17.5787 6.63148 17.5293C6.05182 17.4799 4.6557 23.9623 10.619 29.0967C16.5806 34.2312 26.1134 33.2952 29.9426 30.2746C29.9426 30.2746 30.7029 29.6051 30.9398 29.7011C31.0458 29.7426 30.8606 30.4216 29.9005 31.1331C11.4113 44.8397 -12.1949 19.0326 7.3391 1.68083C8.76216 0.417134 8.38957 0.94799 8.34355 2.21955Z" fill="#163A34"/>
</svg>
