<svg width="26" height="22" viewBox="0 0 26 22" fill="none" xmlns="http://www.w3.org/2000/svg">
<path d="M6.22009 1.48087C9.08472 3.63146 12.166 7.99195 13.2972 10.332C14.4286 7.99212 17.5097 3.63141 20.3744 1.48087C22.4413 -0.0709055 25.7904 -1.27158 25.7904 2.54903C25.7904 3.31206 25.3529 8.95887 25.0963 9.87561C24.2044 13.0628 20.9544 13.8757 18.0635 13.3837C23.1168 14.2438 24.4023 17.0925 21.6261 19.9413C16.3536 25.3517 14.0479 18.5838 13.4569 16.8497C13.3486 16.5317 13.2979 16.383 13.2972 16.5095C13.2964 16.383 13.2457 16.5317 13.1374 16.8497C12.5466 18.5838 10.2411 25.3519 4.96822 19.9413C2.19199 17.0925 3.47744 14.2436 8.53078 13.3837C5.63979 13.8757 2.38976 13.0628 1.49801 9.87561C1.24142 8.95879 0.803955 3.31198 0.803955 2.54903C0.803955 -1.27158 4.15306 -0.0709055 6.21994 1.48087H6.22009Z" fill="#163A34"/>
</svg>
