<svg width="232" height="361" viewBox="0 0 232 361" fill="none" xmlns="http://www.w3.org/2000/svg">
<path d="M184.302 135.007L231.528 40.6314L222.196 34.5163L167.76 123.563C166.118 126.232 162.599 127.022 159.971 125.304L158.195 124.135C155.63 122.451 154.915 119.014 156.593 116.446L213.744 28.985L205.538 23.6566L147.994 111.719C146.316 114.287 142.871 115.015 140.297 113.333C137.729 111.655 137.002 108.21 138.684 105.636L196.236 17.5614L187.195 11.6708L129.623 99.724C127.945 102.292 124.504 103.013 121.93 101.331L120.397 100.329C117.769 98.6118 117.086 95.0593 118.884 92.4922L179.342 6.49674L170.826 0.932155L106.07 77.4166C106.07 77.4166 103.77 80.3848 102.992 81.5756C94.602 94.4155 94.2166 109.465 97.4767 123.335C100.183 134.836 103.865 143.936 99.6741 155.512C91.2121 173.531 70.4083 193.312 58.2497 208.478C15.3281 262.002 -25.9136 329.831 -25.9136 329.831L-25.8775 329.855C-25.9563 329.949 -26.055 330.048 -26.1297 330.162C-31.9104 339.008 -28.2966 351.694 -19.4537 357.507C-19.4537 357.507 -19.4176 357.53 -19.3154 357.597C-10.4448 363.393 2.82457 361.723 8.61315 352.864C8.68781 352.75 8.75041 352.628 8.79315 352.51L8.82925 352.534C8.82925 352.534 64.9156 266.307 86.1727 226.724C95.1253 210.055 104.513 183.973 117.038 168.746C126.118 161.549 138.053 159.333 149.102 156.804C162.401 153.762 174.099 148.954 182.545 137.618C183.094 136.895 184.302 135.007 184.302 135.007Z" fill="#D0DCD9"/>
</svg>
