<svg width="21" height="27" viewBox="0 0 21 27" fill="none" xmlns="http://www.w3.org/2000/svg">
<path d="M5.12533 15.9951C4.76328 16.1866 4.31477 16.087 4.07412 15.7555C2.36465 13.4011 1.15495 11.2166 0.908366 9.93462C0.531832 7.95662 0.434565 4.66875 5.77253 1.84397C11.1122 -0.980829 13.7767 0.950404 15.198 2.37542C15.571 2.74975 15.9775 3.33767 16.3945 4.08644C16.6149 4.48219 16.4545 4.97667 16.0542 5.1885L12.0834 7.28945C11.4732 7.61245 11.2402 8.36879 11.563 8.97895C11.886 9.58912 12.6424 9.82212 13.2525 9.49929L16.967 7.53379C17.4059 7.30179 17.9494 7.50179 18.1209 7.96745C18.7622 9.70829 19.3502 11.6728 19.792 13.6478C19.873 14.0098 19.6985 14.3795 19.3707 14.553L16.3752 16.1383C15.765 16.4613 15.5322 17.2176 15.8552 17.8278C16.178 18.438 16.9345 18.6708 17.5447 18.348L19.3114 17.413C19.8244 17.1413 20.4509 17.4648 20.5032 18.0428C20.8312 21.6695 20.3469 24.7293 18.3742 25.6638C15.5497 27.3216 10.6552 23.5166 6.75737 19.0998C6.4057 18.7013 6.52637 18.0823 6.9962 17.8338L9.70887 16.399C10.3192 16.0761 10.5522 15.3198 10.2294 14.7095C9.9067 14.0993 9.15037 13.8663 8.54003 14.189L5.12533 15.9951Z" fill="#FE9F6B"/>
</svg>
