<svg width="24" height="34" viewBox="0 0 24 34" fill="none" xmlns="http://www.w3.org/2000/svg">
<path opacity="0.4" d="M15.3441 5.49175C15.4021 5.92933 14.9842 6.2583 14.5462 6.2043C10.4569 5.70027 5.04027 8.60713 3.35215 12.3749C3.16884 12.7841 2.66022 12.9735 2.31547 12.6869C1.63955 12.1249 1.05885 11.4357 0.702537 10.6379C0.336503 9.81835 0.220553 8.80817 0.84662 7.95972C1.28967 7.35928 2.00629 6.98103 2.92664 6.78722C2.31545 4.31227 3.00965 2.22758 4.6857 1.3415C6.36285 0.454833 8.48072 1.05557 10.1844 2.95515C10.8726 2.30137 11.5919 1.91942 12.3357 1.88857C13.3911 1.8448 14.1527 2.51032 14.6146 3.2743C14.9959 3.90498 15.2362 4.6795 15.3441 5.49175Z" fill="#FE9F6B"/>
<path d="M8.12535 22.9951C7.7633 23.1866 7.31478 23.087 7.07413 22.7555C5.36466 20.4011 4.15496 18.2166 3.90838 16.9346C3.53185 14.9566 3.43458 11.6688 8.77255 8.84397C14.1122 6.01917 16.7767 7.9504 18.198 9.37542C18.571 9.74975 18.9775 10.3377 19.3945 11.0864C19.6149 11.4822 19.4545 11.9767 19.0542 12.1885L15.0834 14.2895C14.4732 14.6125 14.2402 15.3688 14.563 15.979C14.886 16.5891 15.6424 16.8221 16.2525 16.4993L19.967 14.5338C20.4059 14.3018 20.9494 14.5018 21.1209 14.9675C21.7622 16.7083 22.3502 18.6728 22.792 20.6478C22.873 21.0098 22.6985 21.3795 22.3707 21.553L19.3752 23.1383C18.765 23.4613 18.5322 24.2176 18.8552 24.8278C19.178 25.438 19.9345 25.6708 20.5447 25.348L22.3114 24.413C22.8244 24.1413 23.4509 24.4648 23.5032 25.0428C23.8312 28.6695 23.3469 31.7293 21.3742 32.6638C18.5497 34.3216 13.6552 30.5166 9.75738 26.0998C9.40571 25.7013 9.52638 25.0823 9.99621 24.8338L12.7089 23.399C13.3192 23.0761 13.5522 22.3198 13.2294 21.7095C12.9067 21.0993 12.1504 20.8663 11.54 21.189L8.12535 22.9951Z" fill="#FE9F6B"/>
</svg>
