<svg width="40" height="42" viewBox="0 0 40 42" fill="none" xmlns="http://www.w3.org/2000/svg">
<path d="M22.6768 8.16265V16.9776L17.3218 26.0227H9.02688C8.08522 26.0227 7.23522 25.501 6.80688 24.6627C6.38022 23.8244 6.45688 22.8294 7.01188 22.0677L18.1702 6.69765C18.8168 5.80765 19.9085 5.45098 20.9552 5.79265C22.0018 6.13098 22.6768 7.06098 22.6768 8.16265Z" fill="#49AC9B"/>
<path opacity="0.4" d="M17.2927 34.8319V26.0169L22.6477 16.9719H30.9427C31.8844 16.9719 32.7344 17.4936 33.1627 18.3319C33.5894 19.1702 33.5127 20.1652 32.9577 20.9269L21.7994 36.2969C21.1527 37.1869 20.0611 37.5436 19.0144 37.2019C17.9677 36.8636 17.2927 35.9336 17.2927 34.8319Z" fill="#49AC9B"/>
</svg>
