<svg width="268" height="292" viewBox="0 0 268 292" fill="none" xmlns="http://www.w3.org/2000/svg">
<path d="M283.393 6.59055C283.393 6.59055 214.358 75.6257 205.386 84.6529C197.145 92.8388 0.278842 290.225 0.278842 290.225L0.26212 290.242C0.26212 290.242 62.1685 310.726 215.719 157.153C189.961 111.402 231.051 103.964 246.255 97.1725C271.128 86.0587 310.087 33.2072 310.087 33.2072L309.982 33.1352C310.098 33.0743 310.192 33.0355 310.292 32.9248C317.708 25.5857 317.709 13.6197 310.303 6.32486C302.992 -1.01976 290.992 -1.03101 283.692 6.3247C283.598 6.36342 283.487 6.47415 283.493 6.56825L283.393 6.59055Z" fill="#D0DCD9"/>
</svg>
