<svg width="200" height="21" viewBox="0 0 200 21" fill="none" xmlns="http://www.w3.org/2000/svg">
<path d="M1.29559 16C1.00226 16 0.855592 15.8867 0.855592 15.66V15.6C0.855592 15.4667 0.982258 15.26 1.23559 14.98C1.48893 14.6867 1.61559 14.3867 1.61559 14.08V3.72C1.61559 3.41333 1.48893 3.12 1.23559 2.84C0.982258 2.54667 0.855592 2.33333 0.855592 2.2V2.12C0.855592 1.90667 1.00226 1.8 1.29559 1.8H5.03559C5.34226 1.8 5.49559 1.90667 5.49559 2.12V2.2C5.49559 2.33333 5.35559 2.54667 5.07559 2.84C4.79559 3.12 4.65559 3.41333 4.65559 3.72V8.16H10.7756V3.72C10.7756 3.41333 10.6489 3.12 10.3956 2.84C10.1423 2.54667 10.0156 2.33333 10.0156 2.2V2.12C10.0156 1.90667 10.1623 1.8 10.4556 1.8H14.1956C14.5023 1.8 14.6556 1.90667 14.6556 2.12V2.2C14.6556 2.33333 14.5089 2.54667 14.2156 2.84C13.9356 3.12 13.7956 3.41333 13.7956 3.72V14.08C13.7956 14.3867 13.9356 14.6867 14.2156 14.98C14.5089 15.26 14.6556 15.4667 14.6556 15.6V15.66C14.6556 15.8867 14.5023 16 14.1956 16H10.4556C10.1623 16 10.0156 15.8867 10.0156 15.66V15.6C10.0156 15.4667 10.1423 15.26 10.3956 14.98C10.6489 14.6867 10.7756 14.3867 10.7756 14.08V9.48H4.65559L4.63559 14.08C4.63559 14.3867 4.77559 14.6867 5.05559 14.98C5.34893 15.26 5.49559 15.4667 5.49559 15.6V15.66C5.49559 15.8867 5.34226 16 5.03559 16H1.29559ZM23.909 12.96C24.029 12.8 24.1757 12.7467 24.349 12.8C24.5224 12.8533 24.6024 12.98 24.589 13.18C24.5224 13.8733 24.1224 14.5533 23.389 15.22C22.6557 15.8733 21.7024 16.2 20.529 16.2C19.1157 16.2 17.9557 15.7333 17.049 14.8C16.1424 13.8667 15.689 12.64 15.689 11.12C15.689 9.69333 16.1624 8.52 17.109 7.6C18.0557 6.66667 19.1957 6.2 20.529 6.2C21.7424 6.2 22.6757 6.48667 23.329 7.06C23.9824 7.63333 24.309 8.29333 24.309 9.04C24.309 9.65333 24.0157 10.0933 23.429 10.36L18.989 12.38C19.5357 13.54 20.4157 14.12 21.629 14.12C22.1357 14.12 22.589 14.0133 22.989 13.8C23.4024 13.5733 23.709 13.2933 23.909 12.96ZM20.169 7.08C19.649 7.08 19.2357 7.33333 18.929 7.84C18.6224 8.33333 18.469 8.96667 18.469 9.74C18.469 10.3933 18.5357 10.9667 18.669 11.46L21.249 10.16C21.5957 9.98667 21.769 9.67333 21.769 9.22C21.769 8.76667 21.6224 8.3 21.329 7.82C21.0357 7.32667 20.649 7.08 20.169 7.08ZM34.6532 14C34.6932 14.3067 34.7666 14.5533 34.8732 14.74C34.9932 14.9267 35.1132 15.0467 35.2332 15.1C35.3532 15.14 35.4599 15.1933 35.5532 15.26C35.6466 15.3267 35.6932 15.42 35.6932 15.54C35.6932 15.9267 35.0532 16.12 33.7732 16.12C33.1866 16.12 32.7532 16.0467 32.4732 15.9C32.2066 15.74 32.0466 15.4533 31.9932 15.04C31.4732 15.8133 30.5866 16.2 29.3332 16.2C28.2132 16.2 27.3066 15.94 26.6132 15.42C25.9199 14.9 25.5732 14.1533 25.5732 13.18C25.5599 12.22 25.8999 11.4733 26.5932 10.94C27.2866 10.4067 28.1532 10.14 29.1932 10.14C30.0732 10.14 30.7999 10.34 31.3732 10.74L31.3532 10.5C31.2199 9.23333 31.0332 8.34 30.7932 7.82C30.5532 7.3 30.1466 7.04 29.5732 7.04C29.2132 7.04 28.9199 7.17333 28.6932 7.44C28.4666 7.70667 28.3066 8 28.2132 8.32C28.1199 8.64 27.9666 8.93333 27.7532 9.2C27.5399 9.46667 27.2666 9.6 26.9332 9.6C26.5732 9.6 26.2799 9.5 26.0532 9.3C25.8399 9.08667 25.7332 8.81333 25.7332 8.48C25.7332 7.78667 26.0999 7.23333 26.8332 6.82C27.5799 6.40667 28.4932 6.2 29.5732 6.2C30.8666 6.2 31.9266 6.56667 32.7532 7.3C33.5799 8.03333 34.0666 9.03333 34.2132 10.3L34.6532 14ZM30.2132 15.32C30.6532 15.32 31.0066 15.14 31.2732 14.78C31.5399 14.4067 31.6599 13.9867 31.6332 13.52L31.5732 12.82C31.5199 12.2467 31.3466 11.8067 31.0532 11.5C30.7732 11.1933 30.4199 11.04 29.9932 11.04C29.5666 11.04 29.2132 11.1933 28.9332 11.5C28.6666 11.8067 28.5332 12.2133 28.5332 12.72C28.5332 13.44 28.6866 14.0533 28.9932 14.56C29.3132 15.0667 29.7199 15.32 30.2132 15.32ZM36.6959 16C36.3892 16 36.2359 15.8867 36.2359 15.66V15.58C36.2359 15.4467 36.3626 15.24 36.6159 14.96C36.8826 14.68 37.0159 14.3867 37.0159 14.08V4.24C37.0159 3.89333 36.8826 3.58 36.6159 3.3C36.3626 3.02 36.2359 2.82667 36.2359 2.72V2.64C36.2359 2.48 36.3692 2.34667 36.6359 2.24L39.1559 0.999999C39.4226 0.893333 39.6226 0.88 39.7559 0.959999C39.9026 1.04 39.9759 1.17333 39.9759 1.36V14.08C39.9759 14.3867 40.1159 14.68 40.3959 14.96C40.6892 15.24 40.8359 15.4467 40.8359 15.58V15.66C40.8359 15.8867 40.6826 16 40.3759 16H36.6959ZM45.8614 16.2C44.928 16.2 44.188 15.9067 43.6414 15.32C43.108 14.72 42.8414 13.86 42.8414 12.74V7.56H41.9014C41.6347 7.56 41.5014 7.42667 41.5014 7.16V6.82C41.5014 6.54 41.6347 6.4 41.9014 6.4H42.4014C42.948 6.4 43.408 6.22 43.7814 5.86C44.168 5.5 44.4147 5.02 44.5214 4.42C44.588 4.1 44.7414 3.94 44.9814 3.94H45.3814C45.6747 3.94 45.8214 4.1 45.8214 4.42L45.8414 6.4H48.1414C48.248 6.4 48.3414 6.44 48.4214 6.52C48.5014 6.6 48.5414 6.7 48.5414 6.82V7.16C48.5414 7.28 48.5014 7.38 48.4214 7.46C48.3414 7.52667 48.248 7.56 48.1414 7.56H45.8414V12.78C45.8414 13.1667 45.9347 13.48 46.1214 13.72C46.3214 13.9467 46.568 14.06 46.8614 14.06C47.5547 14.06 48.008 13.76 48.2214 13.16C48.3414 12.9867 48.488 12.92 48.6614 12.96C48.848 12.9867 48.9414 13.0933 48.9414 13.28C48.9414 14.0533 48.6614 14.7333 48.1014 15.32C47.5547 15.9067 46.808 16.2 45.8614 16.2ZM59.8953 14.04C59.9219 14.36 60.0486 14.66 60.2753 14.94C60.5019 15.22 60.6153 15.4333 60.6153 15.58V15.66C60.6153 15.8867 60.4686 16 60.1753 16H56.6953C56.4019 16 56.2553 15.8867 56.2553 15.66V15.58C56.2553 15.4467 56.3753 15.24 56.6153 14.96C56.8686 14.68 56.9886 14.38 56.9753 14.06L56.7753 10.22C56.6819 8.3 56.1019 7.34 55.0353 7.34C54.5019 7.34 54.0819 7.54 53.7753 7.94C53.4819 8.34 53.3353 8.87333 53.3353 9.54V14.08C53.3353 14.3867 53.4753 14.68 53.7553 14.96C54.0486 15.24 54.1953 15.4467 54.1953 15.58V15.66C54.1953 15.8867 54.0353 16 53.7153 16H50.0153C49.7086 16 49.5553 15.8867 49.5553 15.66V15.58C49.5553 15.4467 49.6953 15.24 49.9753 14.96C50.2553 14.68 50.3953 14.3867 50.3953 14.08V4.12C50.3953 3.8 50.2419 3.51333 49.9353 3.26C49.6419 3.00667 49.4953 2.81333 49.4953 2.68V2.62C49.4953 2.42 49.6286 2.25333 49.8953 2.12L52.5353 0.959999C52.7619 0.866666 52.9353 0.853332 53.0553 0.92C53.1886 0.986666 53.2553 1.12 53.2553 1.32L53.2353 7.32C53.8619 6.57333 54.7353 6.2 55.8553 6.2C56.8686 6.2 57.7286 6.53333 58.4353 7.2C59.1419 7.85333 59.5419 8.88667 59.6353 10.3L59.8953 14.04ZM71.1015 6.4C71.3682 6.4 71.5015 6.50667 71.5015 6.72V6.82C71.5015 6.99333 71.3615 7.22667 71.0815 7.52C70.8149 7.81333 70.6149 8.1 70.4815 8.38L66.7015 16.6C66.5282 16.9867 66.3815 17.3 66.2615 17.54C66.1415 17.78 65.9549 18.0933 65.7015 18.48C65.4615 18.88 65.2215 19.1933 64.9815 19.42C64.7415 19.6467 64.4415 19.8467 64.0815 20.02C63.7215 20.1933 63.3482 20.28 62.9615 20.28C62.1082 20.28 61.4015 20.06 60.8415 19.62C60.2949 19.18 60.0215 18.6867 60.0215 18.14C60.0215 17.78 60.1282 17.4867 60.3415 17.26C60.5549 17.0467 60.8482 16.94 61.2215 16.94C61.5949 16.94 61.8882 17.06 62.1015 17.3C62.3149 17.5533 62.4549 17.8333 62.5215 18.14C62.5882 18.4467 62.6882 18.72 62.8215 18.96C62.9682 19.2133 63.1549 19.34 63.3815 19.34C63.9949 19.34 64.6815 18.4067 65.4415 16.54L61.4615 8.38C61.3149 8.08667 61.0949 7.8 60.8015 7.52C60.5215 7.22667 60.3815 6.99333 60.3815 6.82V6.72C60.3815 6.50667 60.5215 6.4 60.8015 6.4H64.5415C64.7949 6.4 64.9215 6.51333 64.9215 6.74V6.82C64.9215 6.94 64.8615 7.08 64.7415 7.24C64.6215 7.38667 64.5415 7.52667 64.5015 7.66C64.4615 7.79333 64.5015 8.04667 64.6215 8.42L66.9615 13.84L69.1215 8.7C69.2549 8.24667 69.2549 7.93333 69.1215 7.76C68.9882 7.58667 68.8082 7.42 68.5815 7.26C68.3549 7.08667 68.2415 6.94 68.2415 6.82V6.74C68.2415 6.51333 68.3815 6.4 68.6615 6.4H71.1015ZM87.3514 14.08C87.5247 14.3467 87.7314 14.58 87.9714 14.78C88.2247 14.9667 88.4247 15.12 88.5714 15.24C88.718 15.3467 88.7914 15.4667 88.7914 15.6V15.66C88.7914 15.8867 88.638 16 88.3314 16H84.1514C83.858 16 83.7114 15.8867 83.7114 15.66V15.6C83.7114 15.48 83.7847 15.3467 83.9314 15.2C84.0914 15.04 84.198 14.9 84.2514 14.78C84.318 14.6467 84.2847 14.4133 84.1514 14.08L82.0514 10.6L79.8514 10.64V14.08C79.8514 14.3867 79.9914 14.6867 80.2714 14.98C80.5647 15.26 80.7114 15.4667 80.7114 15.6V15.66C80.7114 15.8867 80.5514 16 80.2314 16H76.4714C76.178 16 76.0314 15.8867 76.0314 15.66V15.6C76.0314 15.4667 76.158 15.26 76.4114 14.98C76.6647 14.6867 76.7914 14.3867 76.7914 14.08V3.72C76.7914 3.41333 76.6647 3.12 76.4114 2.84C76.158 2.54667 76.0314 2.33333 76.0314 2.2V2.12C76.0314 1.90667 76.178 1.8 76.4714 1.8H81.4114C83.2647 1.8 84.7314 2.18 85.8114 2.94C86.9047 3.7 87.458 4.81333 87.4714 6.28C87.4714 7.09333 87.2314 7.84667 86.7514 8.54C86.2847 9.22 85.6114 9.74667 84.7314 10.12L87.3514 14.08ZM80.9714 9.42H81.8314C82.5914 9.42 83.198 9.18667 83.6514 8.72C84.118 8.24 84.3514 7.54 84.3514 6.62C84.3514 5.52667 84.0314 4.65333 83.3914 4C82.7647 3.34667 82.038 3.02 81.2114 3.02H80.5314C80.078 3.02 79.8514 3.32 79.8514 3.92V8.08C79.8514 8.56 79.938 8.90667 80.1114 9.12C80.298 9.32 80.5847 9.42 80.9714 9.42ZM96.9559 12.96C97.0759 12.8 97.2226 12.7467 97.3959 12.8C97.5692 12.8533 97.6492 12.98 97.6359 13.18C97.5692 13.8733 97.1692 14.5533 96.4359 15.22C95.7026 15.8733 94.7492 16.2 93.5759 16.2C92.1626 16.2 91.0026 15.7333 90.0959 14.8C89.1892 13.8667 88.7359 12.64 88.7359 11.12C88.7359 9.69333 89.2092 8.52 90.1559 7.6C91.1026 6.66667 92.2426 6.2 93.5759 6.2C94.7892 6.2 95.7226 6.48667 96.3759 7.06C97.0292 7.63333 97.3559 8.29333 97.3559 9.04C97.3559 9.65333 97.0626 10.0933 96.4759 10.36L92.0359 12.38C92.5826 13.54 93.4626 14.12 94.6759 14.12C95.1826 14.12 95.6359 14.0133 96.0359 13.8C96.4492 13.5733 96.7559 13.2933 96.9559 12.96ZM93.2159 7.08C92.6959 7.08 92.2826 7.33333 91.9759 7.84C91.6692 8.33333 91.5159 8.96667 91.5159 9.74C91.5159 10.3933 91.5826 10.9667 91.7159 11.46L94.2959 10.16C94.6426 9.98667 94.8159 9.67333 94.8159 9.22C94.8159 8.76667 94.6692 8.3 94.3759 7.82C94.0826 7.32667 93.6959 7.08 93.2159 7.08ZM103.62 16.2C102.14 16.2 100.907 15.7067 99.9201 14.72C98.9468 13.7333 98.4601 12.5533 98.4601 11.18C98.4601 9.68667 98.9468 8.48667 99.9201 7.58C100.907 6.67333 102.1 6.21333 103.5 6.2C104.647 6.18667 105.62 6.45333 106.42 7C107.233 7.54667 107.64 8.21333 107.64 9C107.64 9.29333 107.54 9.54 107.34 9.74C107.14 9.92667 106.827 10.0133 106.4 10C106.08 9.98667 105.8 9.87333 105.56 9.66C105.32 9.44667 105.12 9.2 104.96 8.92C104.813 8.64 104.66 8.36 104.5 8.08C104.34 7.8 104.14 7.56667 103.9 7.38C103.66 7.18 103.38 7.08 103.06 7.08C102.5 7.08 102.047 7.33333 101.7 7.84C101.367 8.34667 101.2 8.98 101.2 9.74C101.2 11.0733 101.507 12.14 102.12 12.94C102.747 13.74 103.573 14.14 104.6 14.14C105.653 14.14 106.453 13.6733 107 12.74C107.08 12.6333 107.173 12.5733 107.28 12.56C107.4 12.5333 107.5 12.56 107.58 12.64C107.673 12.7067 107.713 12.8067 107.7 12.94C107.633 13.8333 107.24 14.6 106.52 15.24C105.813 15.88 104.847 16.2 103.62 16.2ZM112.477 4.5C112.131 4.82 111.664 4.98 111.077 4.98C110.491 4.98 110.011 4.82 109.637 4.5C109.277 4.16667 109.097 3.74 109.097 3.22C109.097 2.71333 109.277 2.3 109.637 1.98C110.011 1.64667 110.491 1.48 111.077 1.48C111.664 1.48 112.131 1.64667 112.477 1.98C112.837 2.3 113.017 2.71333 113.017 3.22C113.017 3.74 112.837 4.16667 112.477 4.5ZM109.257 16C108.964 16 108.817 15.8867 108.817 15.66V15.58C108.817 15.4467 108.944 15.24 109.197 14.96C109.451 14.68 109.577 14.38 109.577 14.06V9.54C109.577 9.20667 109.451 8.89333 109.197 8.6C108.944 8.30667 108.817 8.10667 108.817 8V7.94C108.817 7.80667 108.957 7.66667 109.237 7.52L111.737 6.28C111.991 6.17333 112.191 6.16667 112.337 6.26C112.484 6.34 112.557 6.48 112.557 6.68V14.06C112.557 14.38 112.697 14.68 112.977 14.96C113.257 15.24 113.397 15.4467 113.397 15.58V15.66C113.397 15.8867 113.244 16 112.937 16H109.257ZM120.439 6.2C121.692 6.2 122.786 6.63333 123.719 7.5C124.652 8.36667 125.119 9.54667 125.119 11.04C125.119 12.5467 124.659 13.7867 123.739 14.76C122.832 15.72 121.739 16.2 120.459 16.2C119.526 16.2 118.746 15.94 118.119 15.42V18.4C118.119 18.72 118.259 19.02 118.539 19.3C118.819 19.58 118.959 19.7867 118.959 19.92V20C118.959 20.2267 118.806 20.34 118.499 20.34H114.879C114.572 20.34 114.419 20.2267 114.419 20V19.92C114.419 19.7867 114.546 19.58 114.799 19.3C115.066 19.02 115.199 18.72 115.199 18.4V9.4C115.199 9.10667 115.046 8.84 114.739 8.6C114.432 8.34667 114.279 8.14667 114.279 8V7.9C114.279 7.71333 114.412 7.55333 114.679 7.42L116.919 6.32C117.426 6.06667 117.679 6.18667 117.679 6.68L117.659 7.52C118.219 6.64 119.146 6.2 120.439 6.2ZM120.159 15.34C120.799 15.34 121.292 15.0733 121.639 14.54C121.999 14.0067 122.179 13.24 122.179 12.24C122.179 10.88 121.959 9.68 121.519 8.64C121.079 7.58667 120.486 7.06 119.739 7.06C119.326 7.06 118.966 7.21333 118.659 7.52C118.352 7.81333 118.172 8.2 118.119 8.68V12.5C118.119 13.2733 118.326 13.94 118.739 14.5C119.152 15.06 119.626 15.34 120.159 15.34ZM134.417 12.96C134.537 12.8 134.684 12.7467 134.857 12.8C135.03 12.8533 135.11 12.98 135.097 13.18C135.03 13.8733 134.63 14.5533 133.897 15.22C133.164 15.8733 132.21 16.2 131.037 16.2C129.624 16.2 128.464 15.7333 127.557 14.8C126.65 13.8667 126.197 12.64 126.197 11.12C126.197 9.69333 126.67 8.52 127.617 7.6C128.564 6.66667 129.704 6.2 131.037 6.2C132.25 6.2 133.184 6.48667 133.837 7.06C134.49 7.63333 134.817 8.29333 134.817 9.04C134.817 9.65333 134.524 10.0933 133.937 10.36L129.497 12.38C130.044 13.54 130.924 14.12 132.137 14.12C132.644 14.12 133.097 14.0133 133.497 13.8C133.91 13.5733 134.217 13.2933 134.417 12.96ZM130.677 7.08C130.157 7.08 129.744 7.33333 129.437 7.84C129.13 8.33333 128.977 8.96667 128.977 9.74C128.977 10.3933 129.044 10.9667 129.177 11.46L131.757 10.16C132.104 9.98667 132.277 9.67333 132.277 9.22C132.277 8.76667 132.13 8.3 131.837 7.82C131.544 7.32667 131.157 7.08 130.677 7.08ZM141.003 16C140.696 16 140.543 15.8867 140.543 15.66V15.6C140.543 15.4667 140.669 15.26 140.923 14.98C141.189 14.6867 141.323 14.3867 141.323 14.08V3.72C141.323 3.4 141.189 3.1 140.923 2.82C140.669 2.54 140.543 2.33333 140.543 2.2V2.12C140.543 1.90667 140.689 1.8 140.983 1.8H150.043C150.403 1.8 150.609 1.99333 150.663 2.38L151.143 4.72C151.209 5.06667 151.069 5.24 150.723 5.24H150.623C150.423 5.24 150.203 5.12667 149.963 4.9C149.736 4.66 149.529 4.40667 149.343 4.14C149.169 3.86 148.943 3.60667 148.663 3.38C148.383 3.14 148.096 3.02 147.803 3.02H145.163C144.643 3.02 144.383 3.3 144.383 3.86V8.74H147.063C147.249 8.74 147.423 8.66667 147.583 8.52C147.756 8.36 147.889 8.18667 147.983 8C148.076 7.81333 148.183 7.64667 148.303 7.5C148.423 7.34 148.543 7.26 148.663 7.26H148.823C149.049 7.26 149.163 7.40667 149.163 7.7V10.92C149.163 11.2 149.049 11.34 148.823 11.34H148.663C148.543 11.34 148.423 11.2667 148.303 11.12C148.183 10.9733 148.076 10.8133 147.983 10.64C147.889 10.4667 147.756 10.3067 147.583 10.16C147.423 10.0133 147.249 9.94 147.063 9.94H144.383V14.08C144.383 14.3867 144.523 14.6867 144.803 14.98C145.096 15.26 145.243 15.4667 145.243 15.6V15.66C145.243 15.8867 145.083 16 144.763 16H141.003ZM155.524 4.5C155.178 4.82 154.711 4.98 154.124 4.98C153.538 4.98 153.058 4.82 152.684 4.5C152.324 4.16667 152.144 3.74 152.144 3.22C152.144 2.71333 152.324 2.3 152.684 1.98C153.058 1.64667 153.538 1.48 154.124 1.48C154.711 1.48 155.178 1.64667 155.524 1.98C155.884 2.3 156.064 2.71333 156.064 3.22C156.064 3.74 155.884 4.16667 155.524 4.5ZM152.304 16C152.011 16 151.864 15.8867 151.864 15.66V15.58C151.864 15.4467 151.991 15.24 152.244 14.96C152.498 14.68 152.624 14.38 152.624 14.06V9.54C152.624 9.20667 152.498 8.89333 152.244 8.6C151.991 8.30667 151.864 8.10667 151.864 8V7.94C151.864 7.80667 152.004 7.66667 152.284 7.52L154.784 6.28C155.038 6.17333 155.238 6.16667 155.384 6.26C155.531 6.34 155.604 6.48 155.604 6.68V14.06C155.604 14.38 155.744 14.68 156.024 14.96C156.304 15.24 156.444 15.4467 156.444 15.58V15.66C156.444 15.8867 156.291 16 155.984 16H152.304ZM167.966 14.06C167.993 14.38 168.119 14.68 168.346 14.96C168.573 15.24 168.686 15.4533 168.686 15.6V15.68C168.686 15.9067 168.533 16.02 168.226 16.02H164.766C164.459 16.02 164.306 15.9067 164.306 15.68V15.6C164.306 15.4667 164.426 15.26 164.666 14.98C164.919 14.7 165.039 14.3933 165.026 14.06L164.826 10.36C164.733 8.34667 164.153 7.34 163.086 7.34C162.553 7.34 162.133 7.54 161.826 7.94C161.533 8.34 161.386 8.87333 161.386 9.54V14.08C161.386 14.4 161.526 14.7 161.806 14.98C162.099 15.26 162.246 15.4667 162.246 15.6V15.68C162.246 15.9067 162.093 16.02 161.786 16.02H158.066C157.759 16.02 157.606 15.9067 157.606 15.68V15.6C157.606 15.4667 157.746 15.26 158.026 14.98C158.319 14.7 158.466 14.4 158.466 14.08V9.42C158.466 9.22 158.413 9.04 158.306 8.88C158.213 8.72 158.099 8.60667 157.966 8.54C157.846 8.46 157.733 8.36667 157.626 8.26C157.533 8.15333 157.486 8.04667 157.486 7.94V7.86C157.486 7.71333 157.619 7.57333 157.886 7.44L160.266 6.28C160.493 6.17333 160.659 6.16667 160.766 6.26C160.886 6.34 160.946 6.48667 160.946 6.7V7.82C161.519 6.74 162.506 6.2 163.906 6.2C164.919 6.2 165.779 6.54 166.486 7.22C167.206 7.9 167.619 8.98 167.726 10.46L167.966 14.06ZM179.397 14.08C179.397 14.3867 179.53 14.6867 179.797 14.98C180.064 15.26 180.197 15.4667 180.197 15.6V15.66C180.197 15.8867 180.064 16 179.797 16H177.317C177.01 16 176.857 15.8533 176.857 15.56L176.817 15.12C176.204 15.84 175.337 16.2 174.217 16.2C172.924 16.2 171.817 15.7533 170.897 14.86C169.977 13.9533 169.517 12.7267 169.517 11.18C169.517 9.72667 169.977 8.53333 170.897 7.6C171.817 6.66667 172.93 6.2 174.237 6.2C175.17 6.2 175.95 6.46 176.577 6.98V3.78C176.577 3.51333 176.49 3.29333 176.317 3.12C176.157 2.94667 175.99 2.8 175.817 2.68C175.657 2.56 175.577 2.43333 175.577 2.3V2.24C175.577 2.01333 175.717 1.86 175.997 1.78L178.617 0.979999C179.137 0.806666 179.397 0.939999 179.397 1.38V14.08ZM174.877 15.34C175.33 15.34 175.724 15.1533 176.057 14.78C176.404 14.3933 176.577 13.8667 176.577 13.2V9.68C176.577 9.02667 176.357 8.42667 175.917 7.88C175.477 7.33333 174.97 7.06 174.397 7.06C173.784 7.06 173.297 7.32 172.937 7.84C172.577 8.34667 172.39 9.06667 172.377 10C172.35 10.76 172.424 11.54 172.597 12.34C172.784 13.14 173.077 13.84 173.477 14.44C173.89 15.0267 174.357 15.3267 174.877 15.34ZM189.397 12.96C189.517 12.8 189.664 12.7467 189.837 12.8C190.011 12.8533 190.091 12.98 190.077 13.18C190.011 13.8733 189.611 14.5533 188.877 15.22C188.144 15.8733 187.191 16.2 186.017 16.2C184.604 16.2 183.444 15.7333 182.537 14.8C181.631 13.8667 181.177 12.64 181.177 11.12C181.177 9.69333 181.651 8.52 182.597 7.6C183.544 6.66667 184.684 6.2 186.017 6.2C187.231 6.2 188.164 6.48667 188.817 7.06C189.471 7.63333 189.797 8.29333 189.797 9.04C189.797 9.65333 189.504 10.0933 188.917 10.36L184.477 12.38C185.024 13.54 185.904 14.12 187.117 14.12C187.624 14.12 188.077 14.0133 188.477 13.8C188.891 13.5733 189.197 13.2933 189.397 12.96ZM185.657 7.08C185.137 7.08 184.724 7.33333 184.417 7.84C184.111 8.33333 183.957 8.96667 183.957 9.74C183.957 10.3933 184.024 10.9667 184.157 11.46L186.737 10.16C187.084 9.98667 187.257 9.67333 187.257 9.22C187.257 8.76667 187.111 8.3 186.817 7.82C186.524 7.32667 186.137 7.08 185.657 7.08ZM197.202 6.2C197.775 6.2 198.222 6.37333 198.542 6.72C198.875 7.05333 199.042 7.48667 199.042 8.02C199.042 9.07333 198.615 9.6 197.762 9.6C197.415 9.6 197.142 9.51333 196.942 9.34C196.755 9.15333 196.642 8.95333 196.602 8.74C196.562 8.52667 196.482 8.33333 196.362 8.16C196.242 7.97333 196.062 7.88 195.822 7.88C195.462 7.88 195.195 8.09333 195.022 8.52C194.848 8.94667 194.762 9.46667 194.762 10.08V14.08C194.762 14.32 194.842 14.5333 195.002 14.72C195.175 14.8933 195.342 15.0467 195.502 15.18C195.675 15.3133 195.762 15.4467 195.762 15.58V15.66C195.762 15.8867 195.615 16 195.322 16H191.622C191.315 16 191.162 15.8867 191.162 15.66V15.58C191.162 15.4467 191.288 15.24 191.542 14.96C191.808 14.68 191.942 14.3867 191.942 14.08V9.4C191.942 9.08 191.788 8.79333 191.482 8.54C191.175 8.28667 191.022 8.09333 191.022 7.96V7.88C191.022 7.69333 191.162 7.53333 191.442 7.4L193.842 6.28C194.268 6.08 194.482 6.21333 194.482 6.68V8.18C194.935 6.86 195.842 6.2 197.202 6.2Z" fill="#163A34"/>
</svg>
