<svg width="173" height="144" viewBox="0 0 173 144" fill="none" xmlns="http://www.w3.org/2000/svg">
<path d="M6.59788 12.566C33.3753 1.34963 35.1055 45.1071 42.2758 57.763C46.0555 64.4272 51.4843 71.3024 58.9825 74.0068C85.0838 83.432 125.778 31.8608 135.572 74.9624C140.473 96.5438 134.388 118.841 154.352 134.897C168.004 145.88 184.952 145.704 198.498 135.502C203.944 131.398 197.063 123.322 191.662 127.443C170.598 143.529 152.675 116.176 148.014 99.7596C145.681 91.547 146.953 83.391 146.148 75.1119C145.412 67.5234 144.542 61.1428 139.649 54.9872C129.93 42.7588 112.658 42.0172 99.2067 47.6595C95.9254 49.0318 93.0629 51.3309 89.8887 52.8674C81.3838 56.9788 64.4041 62.6848 54.954 57.9143C46.4353 53.618 43.8956 22.6943 37.858 13.9437C29.5984 1.97515 16.9495 -3.21124 3.48272 2.46936C-2.73861 5.08882 0.310681 15.1972 6.59788 12.566Z" fill="#49AC9B"/>
</svg>
