<svg width="20" height="22" viewBox="0 0 20 22" fill="none" xmlns="http://www.w3.org/2000/svg">
<path d="M20 9.02344H19.957C17.9805 9.02344 16.1758 8.42188 14.7148 7.34766V15.0391C14.7148 18.9062 11.5781 22 7.71094 22C3.84375 22 0.75 18.9062 0.75 15.0391C0.75 11.1719 3.84375 8.03516 7.71094 8.03516C8.05469 8.03516 8.35547 8.07812 8.69922 8.12109V11.9883C8.35547 11.8594 8.05469 11.8164 7.71094 11.8164C5.94922 11.8164 4.48828 13.2773 4.48828 15.0391C4.48828 16.8008 5.94922 18.2617 7.71094 18.2617C9.47266 18.2617 10.9336 16.8008 10.9336 15.0391V0H14.7148C14.7148 0.0429688 14.7148 0.0429688 14.7148 0.0859375C14.7148 0.386719 14.7148 0.6875 14.8008 0.988281C15.0586 2.40625 15.918 3.65234 17.1211 4.42578C17.9375 4.98438 18.9258 5.28516 19.957 5.28516C19.957 5.28516 19.957 5.28516 20 5.28516V9.02344Z" fill="#163A34"/>
</svg>
