<svg width="19" height="35" viewBox="0 0 19 35" fill="none" xmlns="http://www.w3.org/2000/svg">
<path fill-rule="evenodd" clip-rule="evenodd" d="M7.67295 1.43301C7.89685 3.15517 7.85813 6.22014 3.63102 10.0427C2.5755 10.9972 1.56208 11.9786 0.642363 13.001C0.570536 13.0953 -0.130344 14.0751 0.89992 15.2535C1.87351 16.3685 8.7094 22.6039 6.90756 28.3815C6.40421 29.997 7.22516 29.2137 7.68979 28.7344C9.77556 26.5824 11.3877 23.7183 10.8704 20.2089C10.8704 20.2089 10.5943 18.8111 11.2474 18.723C11.9012 18.6372 14.1755 25.9225 7.95466 32.0676C7.29755 32.7163 6.58713 33.2898 5.83913 33.7932C5.83913 33.7932 5.54845 34.1428 5.84193 34.42C5.90422 34.4789 6.35426 34.6158 6.92831 34.3582C22.8261 27.2092 21.214 10.4461 8.75541 0.768057C7.00576 -0.590477 7.48553 -0.00800906 7.67295 1.43301Z" fill="#FE9F6B"/>
</svg>
